<svg width="38" height="38" viewBox="0 0 38 38" fill="none" xmlns="http://www.w3.org/2000/svg">
<circle cx="19" cy="19" r="19" fill="#604E3A"/>
<path fill-rule="evenodd" clip-rule="evenodd" d="M24.5858 15L24.0093 15C21.9891 15.0188 21.1695 15.8823 19.849 18.7638C19.7006 19.0884 19.6217 19.2609 19.5478 19.4205C17.7759 23.2489 15.9637 24.9389 12 25H10V23L11.9846 23.0001C14.9978 22.9536 16.2487 21.7871 17.7328 18.5805C17.8046 18.4254 17.8813 18.2576 18.0308 17.9306C19.6438 14.4109 20.9561 13.0283 24 13H24.5858L23.2929 11.7071L24.7071 10.2929L28.4142 14L24.7071 17.7071L23.2929 16.2929L24.5858 15ZM24.5858 25H24C22.067 24.982 20.8323 24.4179 19.7755 23.1072C20.1678 22.5431 20.5362 21.917 20.8909 21.2284C21.7313 22.5397 22.5624 22.9866 24.0093 23L24.5858 23L23.2929 21.7071L24.7071 20.2929L28.4142 24L24.7071 27.7071L23.2929 26.2929L24.5858 25ZM11.9846 14.9999C14.0221 15.0313 15.2539 15.5749 16.2968 16.9151C16.6245 16.2104 16.9504 15.5724 17.2864 14.9992C15.998 13.666 14.3902 13.0368 12 13H10V15L11.9846 14.9999Z" fill="white"/>
</svg>
