<svg width="52" height="52" viewBox="0 0 52 52" fill="none" xmlns="http://www.w3.org/2000/svg">
<circle cx="26" cy="26" r="24" fill="#D49A7A"/>
<circle cx="26" cy="26" r="25" stroke="white" stroke-opacity="0.42" stroke-width="2"/>
<path fill-rule="evenodd" clip-rule="evenodd" d="M23 26.0276L33 24.3609V28.647C32.408 28.3491 31.7232 28.1805 31 28.1805C28.8271 28.1805 27 29.703 27 31.6805C27 33.6579 28.8271 35.1805 31 35.1805C33.1729 35.1805 35 33.6579 35 31.6805V16L21 18.3333V29.647C20.408 29.3491 19.7232 29.1805 19 29.1805C16.8271 29.1805 15 30.703 15 32.6805C15 34.6579 16.8271 36.1805 19 36.1805C21.1729 36.1805 23 34.6579 23 32.6805V26.0276ZM21 32.6805C21 33.4644 20.1408 34.1805 19 34.1805C17.8592 34.1805 17 33.4644 17 32.6805C17 31.8965 17.8592 31.1805 19 31.1805C20.1408 31.1805 21 31.8965 21 32.6805ZM31 33.1805C32.1408 33.1805 33 32.4644 33 31.6805C33 30.8965 32.1408 30.1805 31 30.1805C29.8592 30.1805 29 30.8965 29 31.6805C29 32.4644 29.8592 33.1805 31 33.1805ZM23 24V20.0276L33 18.3609V22.3333L23 24Z" fill="white"/>
</svg>
